<svg xmlns="http://www.w3.org/2000/svg" viewBox="0 0 128 128" role="img" aria-labelledby="title desc">
  <title id="title">Palmagrande</title>
  <desc id="desc">Isotipo Palmagrande reconstruido con coordenadas vectoriales del PDF</desc>
  <rect width="128" height="128" rx="18" fill="#EDBF61"/>
  <g transform="translate(27 334.1) scale(.68 -.68)">
    <path fill="#005E3C" transform="translate(73.3596 435.1796)" d="M0 0 L-5.371 1.716 L36.114 1.716 C36.064 2.889 34.486 4.624 33.63 5.536 C26.368 13.281 14.977 17.129 4.428 15.767 C0.439 15.252 -3.195 13.756 -6.905 12.354 C-7.072 13.069 -6.497 13.254 -6.14 13.682 C1.019 22.268 11.377 30.01 19.029 38.462 L19.03 38.462 L21.273 40.961 C21.273 40.961 14.157 42.587 5.223 39.543 C4.363 39.298 3.605 39.07 3.26 38.955 C-7.741 35.292 -15.917 25.651 -18.623 14.628 C-20.205 21.9 -24.491 28.61 -30.341 33.345 L-30.34 33.345 C-41.233 43.422 -57.227 40.462 -57.227 40.462 L-28.802 11.596 C-30.985 12.296 -32.941 13.538 -35.127 14.264 C-48.077 18.568 -62.535 14.8 -71.45 4.575 C-72.125 3.8 -73.132 2.723 -73.36 1.716 L-31.875 1.716 L-38.542 -0.618 C-52.139 -6.718 -60.19 -21.599 -57.609 -36.272 L-18.291 1.308 L20.168 -36.276 C21.966 -30.11 20.606 -22.955 18.005 -17.142 C14.459 -9.216 8.039 -3.345 0 0 Z"/>
    <path fill="#FFF9EA" transform="translate(62.8281 409.9082)" d="M0 0 C0 -4.419 -3.623 -8.002 -8.091 -8.002 C-12.56 -8.002 -16.183 -4.419 -16.183 0 C-16.183 4.419 -8.091 15.8 -8.091 15.8 C-8.091 15.8 0 4.419 0 0 Z"/>
    <path fill="#FFF9EA" transform="translate(62.8281 382.6271)" d="M0 0 C0 -4.419 -3.623 -8.002 -8.091 -8.002 C-12.56 -8.002 -16.183 -4.419 -16.183 0 C-16.183 4.419 -8.091 15.8 -8.091 15.8 C-8.091 15.8 0 4.419 0 0 Z"/>
    <path fill="#FFF9EA" transform="translate(62.8281 355.3459)" d="M0 0 C0 -4.419 -3.623 -8.002 -8.091 -8.002 C-12.56 -8.002 -16.183 -4.419 -16.183 0 C-16.183 4.419 -8.091 15.8 -8.091 15.8 C-8.091 15.8 0 4.419 0 0 Z"/>
    <path fill="#FFF9EA" transform="translate(62.8281 327.4059)" d="M0 0 C0 -4.419 -3.623 -8.002 -8.091 -8.002 C-12.56 -8.002 -16.183 -4.419 -16.183 0 C-16.183 4.419 -8.091 15.8 -8.091 15.8 C-8.091 15.8 0 4.419 0 0 Z"/>
  </g>
</svg>
